<svg version="1.2" xmlns="http://www.w3.org/2000/svg" viewBox="0 0 309 309" width="309" height="309">
	<title>product-arrows-svg</title>
	<style>
		.s0 { fill: #000000 } 
	</style>
	<path id="Layer" class="s0" d="m232.7 283.4c-11.6 6.5-23.7 11-36 13.7l-1.4-6.8-13.4 10.8 16.5 5.4-1.1-6.2c12.8-2.8 25.2-7.4 37-14 17.2-9.6 31.8-22.5 43.1-37.9l-2.6-2c-11 14.8-25.1 27.5-42.1 37z"/>
	<path id="Layer" class="s0" d="m216.7 6.7l-0.9 3.1c20.4 7.9 38.9 20.9 53.5 38.2l-5.2 3.9 15.8 7.1-2.8-17-5.3 4c-14.7-17.5-33.6-31-55.1-39.3z"/>
	<path id="Layer" class="s0" d="m12 124.8l-10.5 14 6.5 1c-2.7 25.8 1.8 51.9 13.5 75.4l2.7-1.6c-11.4-23.4-15.5-48.8-13-73.3l6.4 1z"/>
</svg>