<svg version="1.2" xmlns="http://www.w3.org/2000/svg" viewBox="0 0 309 309" width="309" height="309">
	<title>product-arrows-svg</title>
	<style>
		.s0 { fill: #000000 } 
	</style>
	<path id="Layer" class="s0" d="m234.2 25.9c11.4 6.8 21.3 15.1 29.8 24.4l-5.2 4.5 16 6.3-3.5-17-4.8 4c-8.8-9.7-19.1-18.1-30.7-25.1-16.8-10-35.3-16.2-54.3-18.3l-0.5 3.2c18.3 2.2 36.4 8 53.2 18z"/>
	<path id="Layer" class="s0" d="m2.5 178.2l3.1-0.9c-3.3-21.5-1.3-44 6.4-65.4l5.9 2.5-1.7-17.2-13.4 11 6.2 2.5c-7.8 21.6-10.1 44.6-6.5 67.5z"/>
	<path id="Layer" class="s0" d="m207.1 296.3l17.4 2.2-2.3-6.2c23.6-10.6 43.9-27.5 58.5-49.4l-2.8-1.6c-14.5 21.7-34.4 37.9-56.9 48l-2.4-6.1z"/>
</svg>