<svg version="1.2" xmlns="http://www.w3.org/2000/svg" viewBox="0 0 309 309" width="309" height="309">
	<title>product-arrows-svg</title>
	<style>
		.s0 { fill: #000000 } 
	</style>
	<path id="Layer" class="s0" d="m149.8 305.7c-13.3-0.2-26-2.4-38-6.2l2.2-6.5-17 2.6 11.6 12.9 2.1-5.9c12.5 4 25.6 6.2 39.1 6.4 19.6 0.3 38.7-3.6 56.2-11.3l-1.2-3c-16.9 7.3-35.5 11.3-55 11z"/>
	<path id="Layer" class="s0" d="m274.3 58l-2.3 2.3c13.7 17 23.2 37.5 27.2 59.8l-6.4 0.8 10.1 14.1 6.1-16.2-6.6 0.9c-4-22.6-13.6-43.7-28.1-61.7z"/>
	<path id="Layer" class="s0" d="m38 58l-16.1 6.8 5.1 4.2c-15.2 21-24.3 45.8-26 72h3.2c1.8-26 10.9-50 25.3-70l5.1 4.1z"/>
</svg>