<svg version="1.2" xmlns="http://www.w3.org/2000/svg" viewBox="0 0 309 309" width="309" height="309">
	<title>product-arrows-svg</title>
	<style>
		.s0 { fill: #000000 } 
	</style>
	<path id="Layer" class="s0" d="m305.7 159.2c-0.2 13.3-2.4 26-6.2 38l-6.5-2.2 2.6 17 12.9-11.6-5.9-2.1c4-12.5 6.2-25.6 6.4-39.1 0.3-19.6-3.6-38.7-11.3-56.2l-3 1.2c7.3 16.9 11.3 35.5 11 55z"/>
	<path id="Layer" class="s0" d="m58 34.7l2.3 2.3c17-13.7 37.5-23.2 59.8-27.2l0.8 6.4 14.1-10.1-16.2-6.1 0.9 6.6c-22.6 4-43.7 13.6-61.7 28.1z"/>
	<path id="Layer" class="s0" d="m58 271l6.8 16.1 4.2-5.1c21 15.2 45.8 24.3 72 26v-3.2c-26-1.8-50-10.9-70-25.3l4.1-5.1z"/>
</svg>