<svg version="1.2" xmlns="http://www.w3.org/2000/svg" viewBox="0 0 309 309" width="309" height="309">
	<title>product-arrows-svg</title>
	<style>
		.s0 { fill: #000000 } 
	</style>
	<path id="Layer" class="s0" d="m226 287.8c-11.6 6.5-23.7 10.9-36 13.6l-1.3-6.7-13.4 10.7 16.4 5.4-1.1-6.1c12.8-2.8 25.3-7.5 37.1-14 17.1-9.6 31.7-22.5 43-37.9l-2.5-2c-11 14.7-25.1 27.5-42.2 37z"/>
	<path id="Layer" class="s0" d="m210 11l-0.8 3.2c20.3 7.8 38.8 20.8 53.4 38.2l-5.1 3.9 15.8 7.1-2.8-17.1-5.3 4.1c-14.8-17.6-33.6-31-55.2-39.4z"/>
	<path id="Layer" class="s0" d="m5.4 129.2l-10.6 13.9 6.5 1.1c-2.6 25.8 1.9 51.8 13.5 75.4l2.8-1.6c-11.5-23.5-15.6-48.8-13.1-73.3l6.5 1z"/>
</svg>